<?xml version="1.0" encoding="UTF-8" standalone="no"?>
<svg
   height="48"
   viewBox="0 96 960 960"
   width="48"
   version="1.1"
   id="svg20"
   sodipodi:docname="package.svg"
   inkscape:version="1.2.2 (732a01da63, 2022-12-09, custom)"
   xmlns:inkscape="http://www.inkscape.org/namespaces/inkscape"
   xmlns:sodipodi="http://sodipodi.sourceforge.net/DTD/sodipodi-0.dtd"
   xmlns:xlink="http://www.w3.org/1999/xlink"
   xmlns="http://www.w3.org/2000/svg"
   xmlns:svg="http://www.w3.org/2000/svg">
  <defs
     id="defs24">
    <linearGradient
       inkscape:collect="always"
       id="linearGradient979">
      <stop
         style="stop-color:#ffeb73;stop-opacity:1;"
         offset="0"
         id="stop975" />
      <stop
         style="stop-color:#5e8a6d;stop-opacity:1;"
         offset="0.5"
         id="stop11960" />
      <stop
         style="stop-color:#006aab;stop-opacity:1;"
         offset="1"
         id="stop977" />
    </linearGradient>
    <linearGradient
       inkscape:collect="always"
       xlink:href="#linearGradient979"
       id="linearGradient981"
       x1="276.5625"
       y1="377.81723"
       x2="840.37817"
       y2="897.71216"
       gradientUnits="userSpaceOnUse" />
  </defs>
  <sodipodi:namedview
     id="namedview22"
     pagecolor="#ffffff"
     bordercolor="#000000"
     borderopacity="0.25"
     inkscape:showpageshadow="2"
     inkscape:pageopacity="0.0"
     inkscape:pagecheckerboard="0"
     inkscape:deskcolor="#d1d1d1"
     showgrid="false"
     inkscape:zoom="9.9166667"
     inkscape:cx="23.495798"
     inkscape:cy="24.05042"
     inkscape:window-width="1366"
     inkscape:window-height="704"
     inkscape:window-x="0"
     inkscape:window-y="0"
     inkscape:window-maximized="1"
     inkscape:current-layer="svg20" />
  <ellipse
     style="opacity:1;fill:url(#linearGradient981);fill-opacity:1;stroke:none;stroke-width:67.766;stroke-opacity:1"
     id="path305"
     cx="480"
     cy="576.94141"
     rx="480"
     ry="479.05856" />
  <path
     d="m 383.94476,502.77718 94.68444,-47.32635 94.68444,47.32635 V 283.18291 H 383.94476 Z M 289.26033,756.44643 V 680.72427 H 478.6292 v 75.72216 z m -94.68444,151.44433 q -22.72426,0 -39.76746,-17.03749 -17.0432,-17.03748 -17.0432,-39.75413 V 283.18291 q 0,-22.71665 17.0432,-39.75414 17.0432,-17.03748 39.76746,-17.03748 h 568.10662 q 22.72426,0 39.76746,17.03748 17.0432,17.03749 17.0432,39.75414 v 567.91623 q 0,22.71665 -17.0432,39.75413 -17.0432,17.03749 -39.76746,17.03749 z m 0,-624.70785 v 567.91623 z m 0,567.91623 H 762.68251 V 283.18291 H 630.1243 v 311.4074 L 478.6292,518.86814 327.1341,594.59031 V 283.18291 H 194.57589 Z"
     id="path18"
     style="stroke-width:0.946686" />
</svg>
